Coordinates
version=1
nRows=16
nColumns=40
inDegrees=yes

Units are S.I. units (second, meters, Newtons, ...)
If the header above contains a line with 'inDegrees', this indicates whether rotational values are in degrees (yes) or radians (no).

endheader
time	pelvis_tilt	pelvis_list	pelvis_rotation	pelvis_tx	pelvis_ty	pelvis_tz	hip_flexion_r	hip_adduction_r	hip_rotation_r	knee_angle_r	knee_angle_r_beta	ankle_angle_r	subtalar_angle_r	mtp_angle_r	hip_flexion_l	hip_adduction_l	hip_rotation_l	knee_angle_l	knee_angle_l_beta	ankle_angle_l	subtalar_angle_l	mtp_angle_l	lumbar_extension	lumbar_bending	lumbar_rotation	arm_flex_r	arm_add_r	arm_rot_r	elbow_flex_r	pro_sup_r	wrist_flex_r	wrist_dev_r	arm_flex_l	arm_add_l	arm_rot_l	elbow_flex_l	pro_sup_l	wrist_flex_l	wrist_dev_l
      9.97500000	     88.68466045	     55.21049333	     88.91817436	      0.37680851	      0.61699041	      0.81288694	     64.69439130	     -9.64105560	     -6.41230684	     26.24684027	      0.45809378	     -2.59984479	      0.00000000	      0.00000000	     60.37097322	    -15.60550453	    -13.50385640	     20.66328472	      0.36064235	     -4.42407724	      0.00000000	      0.00000000	     -6.76270121	    -11.64322203	     14.67912645	     19.79550077	    -18.28799378	     29.97597858	     23.77407377	     80.63386052	      0.00000000	      0.00000000	     36.97800026	    -12.65830086	     57.42317075	     17.95043744	     75.37613788	      0.00000000	      0.00000000
      9.98000000	     88.66324083	     54.94758275	     88.90309222	      0.37781367	      0.61713804	      0.81215107	     65.05940334	     -9.61743020	     -6.40597485	     26.25903209	      0.45830657	     -2.68565783	      0.00000000	      0.00000000	     60.73366537	    -15.65164991	    -13.51570000	     20.69197682	      0.36114312	     -4.48934511	      0.00000000	      0.00000000	     -6.72548943	    -11.70388708	     14.70355513	     19.97521973	    -18.24055220	     29.69365872	     23.73283624	     80.87388940	      0.00000000	      0.00000000	     37.17076971	    -12.53901520	     57.10002022	     17.79432617	     76.24570092	      0.00000000	      0.00000000
      9.98500000	     88.65405390	     54.66343953	     88.88814264	      0.37883131	      0.61727954	      0.81140501	     65.44303960	     -9.58930893	     -6.37919556	     26.26833704	      0.45846897	     -2.78294369	      0.00000000	      0.00000000	     61.12954964	    -15.69354572	    -13.53094639	     20.74250618	      0.36202503	     -4.57268774	      0.00000000	      0.00000000	     -6.66824997	    -11.74783522	     14.73473752	     20.13312460	    -18.21244594	     29.47332128	     23.72077116	     80.65957982	      0.00000000	      0.00000000	     37.35007084	    -12.45345318	     56.84041610	     17.73248636	     76.89501774	      0.00000000	      0.00000000
      9.99000000	     88.65357068	     54.38113832	     88.88028481	      0.37986778	      0.61742207	      0.81062718	     65.83401692	     -9.57689349	     -6.37590041	     26.30872375	      0.45917385	     -2.84336218	      0.00000000	      0.00000000	     61.52683496	    -15.71931570	    -13.48448560	     20.77735168	      0.36263320	     -4.62541974	      0.00000000	      0.00000000	     -6.61559130	    -11.78071494	     14.73013681	     20.17999677	    -17.91396409	     28.02030590	     23.61400337	     80.79434174	      0.00000000	      0.00000000	     37.44214773	    -12.13405434	     55.59025389	     17.29847101	     77.89672994	      0.00000000	      0.00000000
      9.99500000	     88.65815410	     54.10164903	     88.86546459	      0.38088672	      0.61753051	      0.80988713	     66.21865910	     -9.56374638	     -6.37370036	     26.33528129	      0.45963737	     -2.93779077	      0.00000000	      0.00000000	     61.91950019	    -15.75618490	    -13.48883226	     20.81840675	      0.36334974	     -4.73599320	      0.00000000	      0.00000000	     -6.56884480	    -11.81320238	     14.72444826	     20.44706815	    -17.99145944	     28.37703143	     23.55994827	     80.90760315	      0.00000000	      0.00000000	     37.65353160	    -12.11485103	     55.75486013	     17.30910524	     77.65910884	      0.00000000	      0.00000000
     10.00000000	     88.65028750	     53.83974553	     88.82179747	      0.38186804	      0.61771189	      0.80919285	     66.56861644	     -9.51234144	     -6.37625204	     26.32431314	      0.45944594	     -3.03522938	      0.00000000	      0.00000000	     62.27265797	    -15.81869159	    -13.50794728	     20.83125725	      0.36357403	     -4.80786222	      0.00000000	      0.00000000	     -6.53564974	    -11.86189231	     14.75297354	     20.70289111	    -18.16540466	     29.07801826	     23.60235745	     80.64798158	      0.00000000	      0.00000000	     37.97097241	    -12.28733861	     57.00997505	     17.48590602	     76.49394853	      0.00000000	      0.00000000
     10.00500000	     88.74168849	     53.53947906	     88.84286401	      0.38292569	      0.61762289	      0.80845087	     66.95406567	     -9.58694192	     -6.49662416	     26.35236495	      0.45993553	     -3.21492289	      0.00000000	      0.00000000	     62.70121551	    -15.75936399	    -13.31466588	     20.81238753	      0.36324469	     -4.98814457	      0.00000000	      0.00000000	     -6.48896082	    -11.82348411	     14.62388284	     21.02836489	    -18.33910689	     30.05620417	     23.56880413	     80.04352186	      0.00000000	      0.00000000	     38.16565989	    -12.49269519	     57.96289207	     17.84078614	     73.96875831	      0.00000000	      0.00000000
     10.01000000	     88.67170424	     53.21727093	     88.80793502	      0.38393543	      0.61788431	      0.80761302	     67.38394072	     -9.50601491	     -6.35706533	     26.36190591	      0.46010206	     -3.26514545	      0.00000000	      0.00000000	     63.09823452	    -15.83599775	    -13.38588849	     20.82540555	      0.36347189	     -5.02605203	      0.00000000	      0.00000000	     -6.36688790	    -11.91396451	     14.70763996	     21.08469473	    -18.05119964	     28.62209623	     23.47766246	     80.66819099	      0.00000000	      0.00000000	     38.32062666	    -12.08812618	     56.23973157	     17.32327206	     77.76991185	      0.00000000	      0.00000000
     10.01500000	     88.67172807	     52.94049891	     88.77685608	      0.38492765	      0.61801090	      0.80688960	     67.74627901	     -9.46019948	     -6.32774328	     26.34534287	      0.45981298	     -3.39386406	      0.00000000	      0.00000000	     63.47447796	    -15.87547824	    -13.34566051	     20.84743468	      0.36385638	     -5.10422676	      0.00000000	      0.00000000	     -6.31938195	    -11.95429928	     14.71709176	     21.31462195	    -18.07233365	     28.72971323	     23.42448599	     80.73203961	      0.00000000	      0.00000000	     38.51466590	    -12.08471922	     56.44893829	     17.26886297	     77.35170993	      0.00000000	      0.00000000
     10.02000000	     88.68902238	     52.68809785	     88.75901448	      0.38588809	      0.61811583	      0.80615025	     68.08922349	     -9.44057272	     -6.35921392	     26.35994555	      0.46006784	     -3.47886332	      0.00000000	      0.00000000	     63.83635090	    -15.90479868	    -13.31222669	     20.87561004	      0.36434813	     -5.19761317	      0.00000000	      0.00000000	     -6.29520513	    -11.97608549	     14.69846058	     21.55153635	    -18.07262310	     28.78933416	     23.33737972	     80.66270268	      0.00000000	      0.00000000	     38.73916323	    -12.05043077	     56.48131507	     17.25436593	     77.54789951	      0.00000000	      0.00000000
     10.02500000	     88.72874847	     52.27413923	     88.76769736	      0.38698906	      0.61808602	      0.80515263	     68.58892516	     -9.45624167	     -6.37015434	     26.35087898	      0.45990960	     -3.57599407	      0.00000000	      0.00000000	     64.36228453	    -15.85647881	    -13.11845830	     20.84400803	      0.36379657	     -5.28126705	      0.00000000	      0.00000000	     -6.09365568	    -11.98047535	     14.62503531	     21.90045993	    -18.44990172	     30.69265263	     23.48187526	     79.63604013	      0.00000000	      0.00000000	     39.07092580	    -12.51289310	     58.70638466	     17.90217038	     74.73072394	      0.00000000	      0.00000000
     10.03000000	     88.70177861	     52.08019907	     88.68407295	      0.38789652	      0.61847107	      0.80455189	     68.91819576	     -9.38882884	     -6.47353131	     26.43533641	      0.46138366	     -3.72487722	      0.00000000	      0.00000000	     64.64110883	    -15.98135845	    -13.17923038	     20.89362721	      0.36466259	     -5.35526811	      0.00000000	      0.00000000	     -6.12167544	    -12.05270136	     14.71050781	     22.08662460	    -18.28107098	     29.98327000	     23.33841637	     80.43026584	      0.00000000	      0.00000000	     39.09568613	    -12.01190907	     56.44591931	     17.24166837	     77.48024424	      0.00000000	      0.00000000
     10.03500000	     88.70000101	     51.70123939	     88.64660059	      0.38896742	      0.61860463	      0.80360809	     69.37463306	     -9.32776793	     -6.39055025	     26.39805838	      0.46073303	     -3.81374824	      0.00000000	      0.00000000	     65.12831245	    -16.02408186	    -13.11208468	     20.92025822	      0.36512739	     -5.41642185	      0.00000000	      0.00000000	     -5.94735339	    -12.09577809	     14.73532476	     22.33716176	    -18.40951637	     30.60834899	     23.34464368	     80.26825878	      0.00000000	      0.00000000	     39.37846748	    -12.23265525	     57.64473201	     17.54766337	     76.03582341	      0.00000000	      0.00000000
     10.04000000	     88.69139569	     51.54240264	     88.61519917	      0.38989747	      0.61865268	      0.80308928	     69.58738563	     -9.28128271	     -6.36941672	     26.34153130	      0.45974645	     -3.93009282	      0.00000000	      0.00000000	     65.36036948	    -16.05400858	    -13.08720819	     20.91407820	      0.36501952	     -5.47505848	      0.00000000	      0.00000000	     -6.04017550	    -12.12904500	     14.76608091	     22.45877530	    -18.23207016	     29.59289815	     23.26984525	     80.36435295	      0.00000000	      0.00000000	     39.49181818	    -11.91791590	     56.28225450	     17.23249569	     77.77340294	      0.00000000	      0.00000000
     10.04500000	     88.68415296	     51.28877199	     88.58204006	      0.39087796	      0.61874508	      0.80236480	     69.91607424	     -9.22884744	     -6.32223408	     26.31349661	      0.45925715	     -4.03221036	      0.00000000	      0.00000000	     65.70673467	    -16.09029320	    -13.04053477	     20.93061604	      0.36530816	     -5.53868351	      0.00000000	      0.00000000	     -6.01757086	    -12.17043309	     14.78305222	     22.70697674	    -18.30264532	     29.85811243	     23.25438774	     80.26894440	      0.00000000	      0.00000000	     39.70295275	    -11.88617679	     56.32700211	     17.22639258	     77.71595639	      0.00000000	      0.00000000
     10.05000000	     88.72669545	     51.09126299	     88.57716930	      0.39176260	      0.61871323	      0.80175996	     70.16070441	     -9.24563502	     -6.41762292	     26.28275445	      0.45872060	     -4.12190012	      0.00000000	      0.00000000	     66.00177640	    -16.07480016	    -12.94538721	     20.93475661	      0.36538043	     -5.64646920	      0.00000000	      0.00000000	     -6.07838216	    -12.17189981	     14.72202062	     23.06313440	    -18.66967706	     31.46383772	     23.43175489	     79.12966867	      0.00000000	      0.00000000	     40.06182011	    -12.30267587	     58.39861394	     17.80743132	     75.04401026	      0.00000000	      0.00000000
